<?xml version="1.0" encoding="UTF-8"?>
<svg xmlns="http://www.w3.org/2000/svg" width="1440" height="900" viewBox="0 0 1440 900">
  <rect width="1440" height="900" fill="#FFFFFF"/>
  <rect width="1440" height="84" fill="#FFFFFF"/>
  <text x="72" y="220" font-family="Inter, Arial" font-size="56" font-weight="700" fill="#333333">The governed acceleration layer</text>
  <text x="72" y="270" font-family="Inter, Arial" font-size="20" fill="#666666">Tessallite serves results from summaries when possible and falls back to live data when needed.</text>
  <rect x="72" y="330" width="180" height="52" rx="12" fill="#006C35"/>
  <text x="115" y="363" font-family="Inter, Arial" font-size="16" font-weight="600" fill="#FFFFFF">Get started</text>
  <rect x="268" y="330" width="210" height="52" rx="12" fill="#D4AF37"/>
  <text x="314" y="363" font-family="Inter, Arial" font-size="16" font-weight="600" fill="#333333">Read the docs</text>
  <rect x="72" y="430" width="1296" height="120" rx="16" fill="#F2F7F4"/>
  <g transform="translate(980,170) scale(1.2)" opacity="0.90">
    <polygon points="0,90 120,90 168,150 48,150" fill="#006C35" opacity="0.15"/>
    <polygon points="130,90 250,90 298,150 178,150" fill="#006C35" opacity="0.10"/>
    <polygon points="0,20 120,20 168,80 48,80" fill="#006C35" opacity="0.10"/>
    <polygon points="130,20 250,20 298,80 178,80" fill="#D4AF37" opacity="0.55"/>
  </g>
</svg>