<?xml version="1.0" encoding="UTF-8" standalone="no"?>
<svg
   width="1024"
   height="1024"
   viewBox="0 0 1024 1024"
   version="1.1"
   id="svg9"
   sodipodi:docname="app-icon.svg"
   xml:space="preserve"
   inkscape:version="1.4.3 (0d15f75, 2025-12-25)"
   xmlns:inkscape="http://www.inkscape.org/namespaces/inkscape"
   xmlns:sodipodi="http://sodipodi.sourceforge.net/DTD/sodipodi-0.dtd"
   xmlns:xlink="http://www.w3.org/1999/xlink"
   xmlns="http://www.w3.org/2000/svg"
   xmlns:svg="http://www.w3.org/2000/svg"><sodipodi:namedview
     id="namedview9"
     pagecolor="#ffffff"
     bordercolor="#000000"
     borderopacity="0.25"
     inkscape:showpageshadow="2"
     inkscape:pageopacity="0.0"
     inkscape:pagecheckerboard="0"
     inkscape:deskcolor="#d1d1d1"
     inkscape:zoom="1.3417969"
     inkscape:cx="512"
     inkscape:cy="512"
     inkscape:window-width="2880"
     inkscape:window-height="1676"
     inkscape:window-x="-12"
     inkscape:window-y="-12"
     inkscape:window-maximized="1"
     inkscape:current-layer="svg9" /><defs
     id="defs4"><linearGradient
       id="bg"
       x1="0"
       y1="0"
       x2="1"
       y2="1"><stop
         offset="0%"
         stop-color="#004A24"
         id="stop1" /><stop
         offset="100%"
         stop-color="#006C35"
         id="stop2" /></linearGradient><linearGradient
       id="gGold"
       x1="0"
       y1="0"
       x2="1"
       y2="1"><stop
         offset="0%"
         stop-color="#EBCB55"
         id="stop3" /><stop
         offset="100%"
         stop-color="#B88F1F"
         id="stop4" /></linearGradient><linearGradient
       id="gGold-9"
       x1="21.213203"
       y1="19.79899"
       x2="41.012193"
       y2="39.59798"
       gradientTransform="scale(1.4142136,0.70710678)"
       gradientUnits="userSpaceOnUse"><stop
         offset="0%"
         stop-color="#EBCB55"
         id="stop1-4" /><stop
         offset="100%"
         stop-color="#B88F1F"
         id="stop2-8" /></linearGradient></defs><rect
     x="64"
     y="64"
     width="896"
     height="896"
     rx="160"
     fill="url(#bg)"
     id="rect4" /><g
     transform="translate(170,360) scale(1.10)"
     id="g9" /><image
     width="776.56329"
     height="587.12805"
     preserveAspectRatio="none"
     style="display:none;image-rendering:optimizeSpeed"
     xlink:href="images/image1-0.png"
     id="image1-0"
     x="126.13755"
     y="198.56987" /><polygon
     points="8,30 28,30 36,44 16,44 "
     fill="#006c35"
     id="polygon2"
     transform="matrix(16.218399,0,0,23.730713,-15.559421,-195.08589)"
     style="fill:#f4fffa;fill-opacity:1" /><polygon
     points="30,30 50,30 58,44 38,44 "
     fill="#004a24"
     id="polygon3"
     transform="matrix(16.218399,0,0,23.730713,-15.559421,-195.08589)" /><polygon
     points="8,14 28,14 36,28 16,28 "
     fill="#004a24"
     id="polygon4"
     transform="matrix(16.218399,0,0,23.730713,-15.559421,-195.08589)" /><polygon
     points="30,14 50,14 58,28 38,28 "
     fill="url(#gGold)"
     id="polygon5"
     style="fill:url(#gGold-9)"
     transform="matrix(16.218399,0,0,23.730713,-15.559421,-195.08589)" /></svg>
